<?xml version="1.0" encoding="UTF-8"?>
<svg id="Calque_1" data-name="Calque 1" xmlns="http://www.w3.org/2000/svg" viewBox="0 0 479.62 380.22">
  <defs>
    <style>
      .cls-1 {
        fill: #1d1d1b;
      }
    </style>
  </defs>
  <path class="cls-1" d="M118.27,147.06c-7,64.38-10.5,96.57-7.31,121.45,1.81,14.12,6,37.93-3.73,43.28-5.34,2.93-12.64-.92-13.83-1.55-26.72-14.12-15-73.69-27.05-76-6.79-1.3-17.12,16.34-21.92,29.94-8.57,24.29-.35,38.23-13.06,55.22-2.25,3-8.89,11.89-16.63,11.01-6.94-.78-12.72-9.16-14.3-16.75-3.27-15.67,12.25-23.92,28.45-53.51,9.48-17.31,16.23-29.65,16.79-46.07,1.03-30.53-20.35-46.02-11.97-58.01,5.58-7.98,21.1-9.79,28.91-4.03,8.64,6.36,2.66,18.91,8.39,42.19,4.44,18.06,14.89,38.34,21.2,37.41,4.21-.62,6.21-10.64,9.54-57.63,4.61-64.91,6.91-97.37,2.83-110.07-5.69-17.72-15.35-34.46-7.77-50.57.8-1.69,6.03-12.83,14.61-13.34,7.54-.45,13.42,7.56,14.92,9.62,11.41,15.56,5.36,37.74,1.55,55.22-1.39,6.39-4.14,31.66-9.64,82.21Z"/>
  <path class="cls-1" d="M192.47,232.62c2.22,6.41,4.94,14.04,5.38,24.46.16,3.7-.19,2.79-.08,8.65.26,14.35,2.3,19.65-1.06,24.1-.65.86-1.97,2.31-2.83,4.8-.85,2.45-.77,4.55-.71,5.93.37,7.78,1.27,13.13,1.27,13.13,1.44,8.49,2.32,10.73.85,12.14-1.48,1.42-4.27.99-5.8.42-3.14-1.15-3.37-3.71-6.51-6.92-.65-.66-6.27-6.29-10.47-5.08-4.6,1.33-3.7,9.8-7.36,10.59-3.68.8-5.36-7.63-14.38-12.8-6.54-3.75-9.09-1.29-14.71-5.27-5.12-3.63-7.23-8.66-9.43-13.93-1.85-4.42-4.44-12.32-4.15-22.96-.45-11.54-.9-23.08-1.34-34.61.07-6.3.89-11.53,1.72-15.35.88-4.06,1.81-6.76,3.68-12.14,2.68-7.72,3.98-9.64,4.81-10.73,2.38-3.12,4.95-4.83,7.07-6.21,2.25-1.47,8.95-5.83,16.69-6.21,12.65-.63,22.05,9.67,24.05,11.86,4.17,4.57,2.5,4.97,13.3,36.13ZM164.09,226.68c-.48-2.02-.65-4.21-.76-6.58-.18-3.97-.5-10.38-6.93-9.77-6.03.58-3.55,8.78-6.79,12.09-2.77,2.83-7.1,4.16-9.3,7.46-6.24,9.34-4.89,21.13-1.81,31.13,2.73,8.87,7.72,18.84,15.78,25.07,8.07,6.24,18.33,4.5,24.45-2.86,3.91-4.7,4.95-10.59,5.03-16.25.08-6.1.68-12.97-.82-18.95-1.45-5.76-7.41-8.66-12.34-12.08-3.94-2.73-5.68-5.76-6.51-9.26Z"/>
  <path class="cls-1" d="M261.1,299.89c.22,2.17.68,6.71-2.05,9.4-1.79,1.77-4.41,2.18-7.37,2.66-2.82.45-5.39.86-7.37,0-4.67-2.02-5.18-10.66-5.32-14.51-.74-19.64,3.34-38.35,4.09-60.34.22-6.51.16-13.47-3.98-15.9-2.98-1.75-7.55-.85-10.35,1.46-2.62,2.17-3.6,5.5-4.09,20.02-.25,7.34-.37,11-.2,14.91.46,10.73,2.35,28.41,3.07,40.66.07,1.27.26,5.29-1.84,9.4-.81,1.57-2.1,4.11-4.57,5.03-3.93,1.47-8.81-1.85-11.17-4.34-5.44-5.72-5.44-15.46-5.12-23.97.33-8.85.55-17.71.67-26.57.06-4.71.09-9.42.1-14.14,0-4.37.17-8.64.24-12.98.15-9.33-.19-18.68-1.01-27.95-.4-4.47-.9-9.02-.26-13.45.64-4.42,2.68-8.79,5.89-10.24,1.75-.79,3.66-.65,5.48-.29,4.38.86,8.62,2.95,12.35,6.1,1.85,1.56,3.64,3.46,4.59,6.08,1.17,3.22.04,5.89-.14,9.13-.06,1.19-.43,3.45.71,3.88.53.2,1.17-.41,2.55-1.65,1.33-1.19,2.76-2.27,4.02-3.54,2.43-2.43,6.78-3.86,9.62-3.88,7.84-.07,10.98,10.42,16.79,9.19,2.12-.45,1.74-1.84,5.32-3.88,1.01-.58,6.98-3.85,12.49-2.25,6.47,1.88,9.1,9.55,10.24,12.87,3,8.76,1.49,16.32.61,21.86-.82,5.19-1.09,21.37-1.64,53.73-.25,14.8-.02,23.18-4.91,25.54-3.04,1.46-7.58.38-10.44-1.84-1.37-1.06-3.28-3.1-4.71-9.6-1.22-5.58-.79-8.51-.61-18.18.15-8.36-.16-7.19,0-19.07.07-5.16.14-6.45.2-13.01.13-13.05-.14-9.53,0-12.87.29-7.12.92-8.71-.41-11.24-1.43-2.72-4.65-5.63-8.19-5.31-3.98.36-6.25,4.62-7.17,6.33-3.1,5.8-2.22,11.6-1.43,17.5,2.26,17.03.04,7.05,2.66,24.52,1.52,10.16,1.64,20.49,2.66,30.71Z"/>
  <path class="cls-1" d="M342.28,273.39c-4.31-29.26-6.61-29.35-6.68-41.25-.14-21.44,7.28-28.55,3.68-39.5-3.51-10.71-14.95-17.11-20.51-11.62-6.41,6.29-.57,23.9-1.38,64.88-.74,36.8-5.98,49.25.17,58.88,6.62,10.38,21.52,9.71,26.22,0,1.08-2.24,2.2-6.16-1.5-31.39Z"/>
  <path class="cls-1" d="M442.89,225.17c-.64,1.67-5.43,13.69-17.12,18.4-9.04,3.64-12.32-1.06-25.71,2.34-4.18,1.06-10.86,3.18-15.98,9.12-7.04,8.16-9.92,22.48-4.41,27.97,8.31,8.28,26.92-12.38,48.08-5.92,13.43,4.1,8.59,14.49,36.88,50.61,6.92,8.83,13.23,15.94,14.65,27.52.92,7.46.34,21.11-7.25,24.32-6.88,2.9-16.77-3.96-21.74-11.17-6.66-9.67-2.72-17.41-4.78-31.46-2.24-15.3-11.51-39.27-27-43.38-19-5.03-36.28,21.17-51.7,13.64-8.93-4.36-11.06-17-11.86-21.69-4.68-27.68,21.04-40.92,14.08-61.29-4.06-11.87-15.81-16.17-13.75-26.62,1.16-5.89,6-10.08,7.25-11.17,1.05-.92,4.56-3.84,17.12-6.57,6.48-1.41,13.74-2.94,23.71-2.63,8.98.28,14.84.46,21.74,3.94,8.85,4.47,13.35,11.32,14.49,13.14,1.68,2.68,4.61,8.19,5.27,15.77.68,7.89-1.47,13.8-1.98,15.12ZM402.77,223.8c1.92-1.23,3.01-3.56,5.07-4.54,2.85-1.35,6.24.43,9.35-.1,3.29-.56,5.68-3.77,6.08-7.07.4-3.3-.84-6.62-2.61-9.44-3.43-5.5-8.95-9.66-15.18-11.45-3.28-.94-7.16-1.13-9.76,1.07-3.07,2.59-3.08,7.03-4.15,10.59-1.15,3.83-3.72,7.08-4.84,10.88-2.1,7.16,10.38,13.66,16.03,10.06Z"/>
</svg>